<svg width="772" height="138" xmlns="http://www.w3.org/2000/svg">
    <defs>
        <filter id="neon-glow" x="-80%" y="-80%" width="260%" height="260%">
            <feGaussianBlur stdDeviation="3.5" result="blur" />
            <feMerge>
                <feMergeNode in="blur" />
                <feMergeNode in="blur" />
                <feMergeNode in="SourceGraphic" />
            </feMerge>
        </filter>
        
        <image id="player_car_img" href="https://raw.githubusercontent.com/YOUR_USERNAME/neon-rush-graph/main/assets/main_car.png" width="24" height="24" transform="translate(-12, -12)"/>
    </defs>
    <rect width="100%" height="100%" fill="#0d1117" rx="8"/>
    <g transform="translate(15, 20)">
    <rect x="0" y="0" width="10" height="10" fill="#161b22" rx="2" />
<rect x="0" y="14" width="10" height="10" fill="#161b22" rx="2" />
<rect x="0" y="28" width="10" height="10" fill="#161b22" rx="2" />
<rect x="0" y="42" width="10" height="10" fill="#161b22" rx="2" />
<rect x="0" y="56" width="10" height="10" fill="#161b22" rx="2" />
<rect x="0" y="70" width="10" height="10" fill="#161b22" rx="2" />
<rect x="0" y="84" width="10" height="10" fill="#161b22" rx="2" />
<rect x="14" y="0" width="10" height="10" fill="#161b22" rx="2" />
<rect x="14" y="14" width="10" height="10" fill="#161b22" rx="2" />
<rect x="14" y="28" width="10" height="10" fill="#161b22" rx="2" />
<rect x="14" y="42" width="10" height="10" fill="#161b22" rx="2" />
<rect x="14" y="56" width="10" height="10" fill="#161b22" rx="2" />
<rect x="14" y="70" width="10" height="10" fill="#161b22" rx="2" />
<rect x="14" y="84" width="10" height="10" fill="#161b22" rx="2" />
<rect x="28" y="0" width="10" height="10" fill="#161b22" rx="2" />
<rect x="28" y="14" width="10" height="10" fill="#161b22" rx="2" />
<rect x="28" y="28" width="10" height="10" fill="#161b22" rx="2" />
<rect x="28" y="42" width="10" height="10" fill="#161b22" rx="2" />
<rect x="28" y="56" width="10" height="10" fill="#161b22" rx="2" />
<rect x="28" y="70" width="10" height="10" fill="#161b22" rx="2" />
<rect x="28" y="84" width="10" height="10" fill="#161b22" rx="2" />
<rect x="42" y="0" width="10" height="10" fill="#161b22" rx="2" />
<rect x="42" y="14" width="10" height="10" fill="#161b22" rx="2" />
<rect x="42" y="28" width="10" height="10" fill="#161b22" rx="2" />
<rect x="42" y="42" width="10" height="10" fill="#161b22" rx="2" />
<rect x="42" y="56" width="10" height="10" fill="#161b22" rx="2" />
<rect x="42" y="70" width="10" height="10" fill="#161b22" rx="2" />
<rect x="42" y="84" width="10" height="10" fill="#161b22" rx="2" />
<rect x="56" y="0" width="10" height="10" fill="#161b22" rx="2" />
<rect x="56" y="14" width="10" height="10" fill="#161b22" rx="2" />
<rect x="56" y="28" width="10" height="10" fill="#161b22" rx="2" />
<rect x="56" y="42" width="10" height="10" fill="#161b22" rx="2" />
<rect x="56" y="56" width="10" height="10" fill="#161b22" rx="2" />
<rect x="56" y="70" width="10" height="10" fill="#161b22" rx="2" />
<rect x="56" y="84" width="10" height="10" fill="#161b22" rx="2" />
<rect x="70" y="0" width="10" height="10" fill="#161b22" rx="2" />
<rect x="70" y="14" width="10" height="10" fill="#161b22" rx="2" />
<rect x="70" y="28" width="10" height="10" fill="#161b22" rx="2" />
<rect x="70" y="42" width="10" height="10" fill="#161b22" rx="2" />
<rect x="70" y="56" width="10" height="10" fill="#161b22" rx="2" />
<rect x="70" y="70" width="10" height="10" fill="#161b22" rx="2" />
<rect x="70" y="84" width="10" height="10" fill="#161b22" rx="2" />
<rect x="84" y="0" width="10" height="10" fill="#161b22" rx="2" />
<rect x="84" y="14" width="10" height="10" fill="#161b22" rx="2" />
<rect x="84" y="28" width="10" height="10" fill="#161b22" rx="2" />
<rect x="84" y="42" width="10" height="10" fill="#161b22" rx="2" />
<rect x="84" y="56" width="10" height="10" fill="#161b22" rx="2" />
<rect x="84" y="70" width="10" height="10" fill="#161b22" rx="2" />
<rect x="84" y="84" width="10" height="10" fill="#161b22" rx="2" />
<rect x="98" y="0" width="10" height="10" fill="#161b22" rx="2" />
<rect x="98" y="14" width="10" height="10" fill="#161b22" rx="2" />
<rect x="98" y="28" width="10" height="10" fill="#161b22" rx="2" />
<rect x="98" y="42" width="10" height="10" fill="#161b22" rx="2" />
<rect x="98" y="56" width="10" height="10" fill="#161b22" rx="2" />
<rect x="98" y="70" width="10" height="10" fill="#161b22" rx="2" />
<rect x="98" y="84" width="10" height="10" fill="#161b22" rx="2" />
<rect x="112" y="0" width="10" height="10" fill="#161b22" rx="2" />
<rect x="112" y="14" width="10" height="10" fill="#161b22" rx="2" />
<rect x="112" y="28" width="10" height="10" fill="#161b22" rx="2" />
<rect x="112" y="42" width="10" height="10" fill="#161b22" rx="2" />
<rect x="112" y="56" width="10" height="10" fill="#161b22" rx="2" />
<rect x="112" y="70" width="10" height="10" fill="#161b22" rx="2" />
<rect x="112" y="84" width="10" height="10" fill="#161b22" rx="2" />
<rect x="126" y="0" width="10" height="10" fill="#161b22" rx="2" />
<rect x="126" y="14" width="10" height="10" fill="#161b22" rx="2" />
<rect x="126" y="28" width="10" height="10" fill="#161b22" rx="2" />
<rect x="126" y="42" width="10" height="10" fill="#161b22" rx="2" />
<rect x="126" y="56" width="10" height="10" fill="#161b22" rx="2" />
<rect x="126" y="70" width="10" height="10" fill="#161b22" rx="2" />
<rect x="126" y="84" width="10" height="10" fill="#161b22" rx="2" />
<rect x="140" y="0" width="10" height="10" fill="#161b22" rx="2" />
<rect x="140" y="14" width="10" height="10" fill="#161b22" rx="2" />
<rect x="140" y="28" width="10" height="10" fill="#161b22" rx="2" />
<rect x="140" y="42" width="10" height="10" fill="#161b22" rx="2" />
<rect x="140" y="56" width="10" height="10" fill="#161b22" rx="2" />
<rect x="140" y="70" width="10" height="10" fill="#161b22" rx="2" />
<rect x="140" y="84" width="10" height="10" fill="#161b22" rx="2" />
<rect x="154" y="0" width="10" height="10" fill="#161b22" rx="2" />
<rect x="154" y="14" width="10" height="10" fill="#161b22" rx="2" />
<rect x="154" y="28" width="10" height="10" fill="#161b22" rx="2" />
<rect x="154" y="42" width="10" height="10" fill="#161b22" rx="2" />
<rect x="154" y="56" width="10" height="10" fill="#161b22" rx="2" />
<rect x="154" y="70" width="10" height="10" fill="#161b22" rx="2" />
<rect x="154" y="84" width="10" height="10" fill="#161b22" rx="2" />
<rect x="168" y="0" width="10" height="10" fill="#161b22" rx="2" />
<rect x="168" y="14" width="10" height="10" fill="#161b22" rx="2" />
<rect x="168" y="28" width="10" height="10" fill="#161b22" rx="2" />
<rect x="168" y="42" width="10" height="10" fill="#161b22" rx="2" />
<rect x="168" y="56" width="10" height="10" fill="#161b22" rx="2" />
<rect x="168" y="70" width="10" height="10" fill="#161b22" rx="2" />
<rect x="168" y="84" width="10" height="10" fill="#161b22" rx="2" />
<rect x="182" y="0" width="10" height="10" fill="#161b22" rx="2" />
<rect x="182" y="14" width="10" height="10" fill="#161b22" rx="2" />
<rect x="182" y="28" width="10" height="10" fill="#161b22" rx="2" />
<rect x="182" y="42" width="10" height="10" fill="#161b22" rx="2" />
<rect x="182" y="56" width="10" height="10" fill="#161b22" rx="2" />
<rect x="182" y="70" width="10" height="10" fill="#161b22" rx="2" />
<rect x="182" y="84" width="10" height="10" fill="#161b22" rx="2" />
<rect x="196" y="0" width="10" height="10" fill="#161b22" rx="2" />
<rect x="196" y="14" width="10" height="10" fill="#161b22" rx="2" />
<rect x="196" y="28" width="10" height="10" fill="#161b22" rx="2" />
<rect x="196" y="42" width="10" height="10" fill="#161b22" rx="2" />
<rect x="196" y="56" width="10" height="10" fill="#161b22" rx="2" />
<rect x="196" y="70" width="10" height="10" fill="#161b22" rx="2" />
<rect x="196" y="84" width="10" height="10" fill="#161b22" rx="2" />
<rect x="210" y="0" width="10" height="10" fill="#161b22" rx="2" />
<rect x="210" y="14" width="10" height="10" fill="#161b22" rx="2" />
<rect x="210" y="28" width="10" height="10" fill="#161b22" rx="2" />
<rect x="210" y="42" width="10" height="10" fill="#161b22" rx="2" />
<rect x="210" y="56" width="10" height="10" fill="#161b22" rx="2" />
<rect x="210" y="70" width="10" height="10" fill="#161b22" rx="2" />
<rect x="210" y="84" width="10" height="10" fill="#161b22" rx="2" />
<rect x="224" y="0" width="10" height="10" fill="#161b22" rx="2" />
<rect x="224" y="14" width="10" height="10" fill="#161b22" rx="2" />
<rect x="224" y="28" width="10" height="10" fill="#161b22" rx="2" />
<rect x="224" y="42" width="10" height="10" fill="#161b22" rx="2" />
<rect x="224" y="56" width="10" height="10" fill="#161b22" rx="2" />
<rect x="224" y="70" width="10" height="10" fill="#161b22" rx="2" />
<rect x="224" y="84" width="10" height="10" fill="#161b22" rx="2" />
<rect x="238" y="0" width="10" height="10" fill="#161b22" rx="2" />
<rect x="238" y="14" width="10" height="10" fill="#161b22" rx="2" />
<rect x="238" y="28" width="10" height="10" fill="#161b22" rx="2" />
<rect x="238" y="42" width="10" height="10" fill="#161b22" rx="2" />
<rect x="238" y="56" width="10" height="10" fill="#161b22" rx="2" />
<rect x="238" y="70" width="10" height="10" fill="#161b22" rx="2" />
<rect x="238" y="84" width="10" height="10" fill="#161b22" rx="2" />
<rect x="252" y="0" width="10" height="10" fill="#161b22" rx="2" />
<rect x="252" y="14" width="10" height="10" fill="#161b22" rx="2" />
<rect x="252" y="28" width="10" height="10" fill="#161b22" rx="2" />
<rect x="252" y="42" width="10" height="10" fill="#161b22" rx="2" />
<rect x="252" y="56" width="10" height="10" fill="#161b22" rx="2" />
<rect x="252" y="70" width="10" height="10" fill="#161b22" rx="2" />
<rect x="252" y="84" width="10" height="10" fill="#161b22" rx="2" />
<rect x="266" y="0" width="10" height="10" fill="#161b22" rx="2" />
<rect x="266" y="14" width="10" height="10" fill="#161b22" rx="2" />
<rect x="266" y="28" width="10" height="10" fill="#161b22" rx="2" />
<rect x="266" y="42" width="10" height="10" fill="#161b22" rx="2" />
<rect x="266" y="56" width="10" height="10" fill="#161b22" rx="2" />
<rect x="266" y="70" width="10" height="10" fill="#161b22" rx="2" />
<rect x="266" y="84" width="10" height="10" fill="#161b22" rx="2" />
<rect x="280" y="0" width="10" height="10" fill="#161b22" rx="2" />
<rect x="280" y="14" width="10" height="10" fill="#161b22" rx="2" />
<rect x="280" y="28" width="10" height="10" fill="#161b22" rx="2" />
<rect x="280" y="42" width="10" height="10" fill="#161b22" rx="2" />
<rect x="280" y="56" width="10" height="10" fill="#161b22" rx="2" />
<rect x="280" y="70" width="10" height="10" fill="#161b22" rx="2" />
<rect x="280" y="84" width="10" height="10" fill="#161b22" rx="2" />
<rect x="294" y="0" width="10" height="10" fill="#161b22" rx="2" />
<rect x="294" y="14" width="10" height="10" fill="#161b22" rx="2" />
<rect x="294" y="28" width="10" height="10" fill="#161b22" rx="2" />
<rect x="294" y="42" width="10" height="10" fill="#161b22" rx="2" />
<rect x="294" y="56" width="10" height="10" fill="#161b22" rx="2" />
<rect x="294" y="70" width="10" height="10" fill="#161b22" rx="2" />
<rect x="294" y="84" width="10" height="10" fill="#161b22" rx="2" />
<rect x="308" y="0" width="10" height="10" fill="#161b22" rx="2" />
<rect x="308" y="14" width="10" height="10" fill="#161b22" rx="2" />
<rect x="308" y="28" width="10" height="10" fill="#161b22" rx="2" />
<rect x="308" y="42" width="10" height="10" fill="#161b22" rx="2" />
<rect x="308" y="56" width="10" height="10" fill="#161b22" rx="2" />
<rect x="308" y="70" width="10" height="10" fill="#161b22" rx="2" />
<rect x="308" y="84" width="10" height="10" fill="#161b22" rx="2" />
<rect x="322" y="0" width="10" height="10" fill="#161b22" rx="2" />
<rect x="322" y="14" width="10" height="10" fill="#161b22" rx="2" />
<rect x="322" y="28" width="10" height="10" fill="#161b22" rx="2" />
<rect x="322" y="42" width="10" height="10" fill="#161b22" rx="2" />
<rect x="322" y="56" width="10" height="10" fill="#161b22" rx="2" />
<rect x="322" y="70" width="10" height="10" fill="#161b22" rx="2" />
<rect x="322" y="84" width="10" height="10" fill="#161b22" rx="2" />
<rect x="336" y="0" width="10" height="10" fill="#161b22" rx="2" />
<rect x="336" y="14" width="10" height="10" fill="#161b22" rx="2" />
<rect x="336" y="28" width="10" height="10" fill="#161b22" rx="2" />
<rect x="336" y="42" width="10" height="10" fill="#161b22" rx="2" />
<rect x="336" y="56" width="10" height="10" fill="#161b22" rx="2" />
<rect x="336" y="70" width="10" height="10" fill="#161b22" rx="2" />
<rect x="336" y="84" width="10" height="10" fill="#161b22" rx="2" />
<rect x="350" y="0" width="10" height="10" fill="#161b22" rx="2" />
<rect x="350" y="14" width="10" height="10" fill="#161b22" rx="2" />
<rect x="350" y="28" width="10" height="10" fill="#161b22" rx="2" />
<rect x="350" y="42" width="10" height="10" fill="#161b22" rx="2" />
<rect x="350" y="56" width="10" height="10" fill="#161b22" rx="2" />
<rect x="350" y="70" width="10" height="10" fill="#161b22" rx="2" />
<rect x="350" y="84" width="10" height="10" fill="#161b22" rx="2" />
<rect x="364" y="0" width="10" height="10" fill="#161b22" rx="2" />
<rect x="364" y="14" width="10" height="10" fill="#161b22" rx="2" />
<rect x="364" y="28" width="10" height="10" fill="#161b22" rx="2" />
<rect x="364" y="42" width="10" height="10" fill="#161b22" rx="2" />
<rect x="364" y="56" width="10" height="10" fill="#161b22" rx="2" />
<rect x="364" y="70" width="10" height="10" fill="#161b22" rx="2" />
<rect x="364" y="84" width="10" height="10" fill="#161b22" rx="2" />
<rect x="378" y="0" width="10" height="10" fill="#161b22" rx="2" />
<rect x="378" y="14" width="10" height="10" fill="#161b22" rx="2" />
<rect x="378" y="28" width="10" height="10" fill="#161b22" rx="2" />
<rect x="378" y="42" width="10" height="10" fill="#161b22" rx="2" />
<rect x="378" y="56" width="10" height="10" fill="#161b22" rx="2" />
<rect x="378" y="70" width="10" height="10" fill="#161b22" rx="2" />
<rect x="378" y="84" width="10" height="10" fill="#161b22" rx="2" />
<rect x="392" y="0" width="10" height="10" fill="#161b22" rx="2" />
<rect x="392" y="14" width="10" height="10" fill="#161b22" rx="2" />
<rect x="392" y="28" width="10" height="10" fill="#161b22" rx="2" />
<rect x="392" y="42" width="10" height="10" fill="#161b22" rx="2" />
<rect x="392" y="56" width="10" height="10" fill="#161b22" rx="2" />
<rect x="392" y="70" width="10" height="10" fill="#161b22" rx="2" />
<rect x="392" y="84" width="10" height="10" fill="#161b22" rx="2" />
<rect x="406" y="0" width="10" height="10" fill="#161b22" rx="2" />
<rect x="406" y="14" width="10" height="10" fill="#161b22" rx="2" />
<rect x="406" y="28" width="10" height="10" fill="#161b22" rx="2" />
<rect x="406" y="42" width="10" height="10" fill="#161b22" rx="2" />
<rect x="406" y="56" width="10" height="10" fill="#161b22" rx="2" />
<rect x="406" y="70" width="10" height="10" fill="#161b22" rx="2" />
<rect x="406" y="84" width="10" height="10" fill="#161b22" rx="2" />
<rect x="420" y="0" width="10" height="10" fill="#161b22" rx="2" />
<rect x="420" y="14" width="10" height="10" fill="#161b22" rx="2" />
<rect x="420" y="28" width="10" height="10" fill="#161b22" rx="2" />
<rect x="420" y="42" width="10" height="10" fill="#161b22" rx="2" />
<rect x="420" y="56" width="10" height="10" fill="#161b22" rx="2" />
<rect x="420" y="70" width="10" height="10" fill="#161b22" rx="2" />
<rect x="420" y="84" width="10" height="10" fill="#161b22" rx="2" />
<rect x="434" y="0" width="10" height="10" fill="#161b22" rx="2" />
<rect x="434" y="14" width="10" height="10" fill="#161b22" rx="2" />
<rect x="434" y="28" width="10" height="10" fill="#161b22" rx="2" />
<rect x="434" y="42" width="10" height="10" fill="#161b22" rx="2" />
<rect x="434" y="56" width="10" height="10" fill="#161b22" rx="2" />
<rect x="434" y="70" width="10" height="10" fill="#161b22" rx="2" />
<rect x="434" y="84" width="10" height="10" fill="#161b22" rx="2" />
<rect x="448" y="0" width="10" height="10" fill="#161b22" rx="2" />
<rect x="448" y="14" width="10" height="10" fill="#161b22" rx="2" />
<rect x="448" y="28" width="10" height="10" fill="#161b22" rx="2" />
<rect x="448" y="42" width="10" height="10" fill="#161b22" rx="2" />
<rect x="448" y="56" width="10" height="10" fill="#161b22" rx="2" />
<rect x="448" y="70" width="10" height="10" fill="#161b22" rx="2" />
<rect x="448" y="84" width="10" height="10" fill="#161b22" rx="2" />
<rect x="462" y="0" width="10" height="10" fill="#161b22" rx="2" />
<rect x="462" y="14" width="10" height="10" fill="#161b22" rx="2" />
<rect x="462" y="28" width="10" height="10" fill="#161b22" rx="2" />
<rect x="462" y="42" width="10" height="10" fill="#161b22" rx="2" />
<rect x="462" y="56" width="10" height="10" fill="#161b22" rx="2" />
<rect x="462" y="70" width="10" height="10" fill="#161b22" rx="2" />
<rect x="462" y="84" width="10" height="10" fill="#161b22" rx="2" />
<rect x="476" y="0" width="10" height="10" fill="#161b22" rx="2" />
<rect x="476" y="14" width="10" height="10" fill="#161b22" rx="2" />
<rect x="476" y="28" width="10" height="10" fill="#161b22" rx="2" />
<rect x="476" y="42" width="10" height="10" fill="#161b22" rx="2" />
<rect x="476" y="56" width="10" height="10" fill="#161b22" rx="2" />
<rect x="476" y="70" width="10" height="10" fill="#161b22" rx="2" />
<rect x="476" y="84" width="10" height="10" fill="#161b22" rx="2" />
<rect x="490" y="0" width="10" height="10" fill="#161b22" rx="2" />
<rect x="490" y="14" width="10" height="10" fill="#161b22" rx="2" />
<rect x="490" y="28" width="10" height="10" fill="#161b22" rx="2" />
<rect x="490" y="42" width="10" height="10" fill="#161b22" rx="2" />
<rect x="490" y="56" width="10" height="10" fill="#161b22" rx="2" />
<rect x="490" y="70" width="10" height="10" fill="#161b22" rx="2" />
<rect x="490" y="84" width="10" height="10" fill="#161b22" rx="2" />
<rect x="504" y="0" width="10" height="10" fill="#161b22" rx="2" />
<rect x="504" y="14" width="10" height="10" fill="#161b22" rx="2" />
<rect x="504" y="28" width="10" height="10" fill="#161b22" rx="2" />
<rect x="504" y="42" width="10" height="10" fill="#161b22" rx="2" />
<rect x="504" y="56" width="10" height="10" fill="#161b22" rx="2" />
<rect x="504" y="70" width="10" height="10" fill="#161b22" rx="2" />
<rect x="504" y="84" width="10" height="10" fill="#161b22" rx="2" />
<rect x="518" y="0" width="10" height="10" fill="#161b22" rx="2" />
<rect x="518" y="14" width="10" height="10" fill="#161b22" rx="2" />
<rect x="518" y="28" width="10" height="10" fill="#161b22" rx="2" />
<rect x="518" y="42" width="10" height="10" fill="#161b22" rx="2" />
<rect x="518" y="56" width="10" height="10" fill="#161b22" rx="2" />
<rect x="518" y="70" width="10" height="10" fill="#161b22" rx="2" />
<rect x="518" y="84" width="10" height="10" fill="#161b22" rx="2" />
<rect x="532" y="0" width="10" height="10" fill="#161b22" rx="2" />
<rect x="532" y="14" width="10" height="10" fill="#161b22" rx="2" />
<rect x="532" y="28" width="10" height="10" fill="#161b22" rx="2" />
<rect x="532" y="42" width="10" height="10" fill="#161b22" rx="2" />
<rect x="532" y="56" width="10" height="10" fill="#161b22" rx="2" />
<rect x="532" y="70" width="10" height="10" fill="#161b22" rx="2" />
<rect x="532" y="84" width="10" height="10" fill="#161b22" rx="2" />
<rect x="546" y="0" width="10" height="10" fill="#161b22" rx="2" />
<rect x="546" y="14" width="10" height="10" fill="#161b22" rx="2" />
<rect x="546" y="28" width="10" height="10" fill="#161b22" rx="2" />
<rect x="546" y="42" width="10" height="10" fill="#161b22" rx="2" />
<rect x="546" y="56" width="10" height="10" fill="#161b22" rx="2" />
<rect x="546" y="70" width="10" height="10" fill="#161b22" rx="2" />
<rect x="546" y="84" width="10" height="10" fill="#161b22" rx="2" />
<rect x="560" y="0" width="10" height="10" fill="#161b22" rx="2" />
<rect x="560" y="14" width="10" height="10" fill="#161b22" rx="2" />
<rect x="560" y="28" width="10" height="10" fill="#161b22" rx="2" />
<rect x="560" y="42" width="10" height="10" fill="#161b22" rx="2" />
<rect x="560" y="56" width="10" height="10" fill="#161b22" rx="2" />
<rect x="560" y="70" width="10" height="10" fill="#161b22" rx="2" />
<rect x="560" y="84" width="10" height="10" fill="#161b22" rx="2" />
<rect x="574" y="0" width="10" height="10" fill="#161b22" rx="2" />
<rect x="574" y="14" width="10" height="10" fill="#161b22" rx="2" />
<rect x="574" y="28" width="10" height="10" fill="#161b22" rx="2" />
<rect x="574" y="42" width="10" height="10" fill="#161b22" rx="2" />
<rect x="574" y="56" width="10" height="10" fill="#161b22" rx="2" />
<rect x="574" y="70" width="10" height="10" fill="#161b22" rx="2" />
<rect x="574" y="84" width="10" height="10" fill="#161b22" rx="2" />
<rect x="588" y="0" width="10" height="10" fill="#161b22" rx="2" />
<rect x="588" y="14" width="10" height="10" fill="#161b22" rx="2" />
<rect x="588" y="28" width="10" height="10" fill="#161b22" rx="2" />
<rect x="588" y="42" width="10" height="10" fill="#161b22" rx="2" />
<rect x="588" y="56" width="10" height="10" fill="#161b22" rx="2" />
<rect x="588" y="70" width="10" height="10" fill="#161b22" rx="2" />
<rect x="588" y="84" width="10" height="10" fill="#161b22" rx="2" />
<rect x="602" y="0" width="10" height="10" fill="#161b22" rx="2" />
<rect x="602" y="14" width="10" height="10" fill="#161b22" rx="2" />
<rect x="602" y="28" width="10" height="10" fill="#161b22" rx="2" />
<rect x="602" y="42" width="10" height="10" fill="#161b22" rx="2" />
<rect x="602" y="56" width="10" height="10" fill="#161b22" rx="2" />
<rect x="602" y="70" width="10" height="10" fill="#161b22" rx="2" />
<rect x="602" y="84" width="10" height="10" fill="#161b22" rx="2" />
<rect x="616" y="0" width="10" height="10" fill="#161b22" rx="2" />
<rect x="616" y="14" width="10" height="10" fill="#161b22" rx="2" />
<rect x="616" y="28" width="10" height="10" fill="#161b22" rx="2" />
<rect x="616" y="42" width="10" height="10" fill="#161b22" rx="2" />
<rect x="616" y="56" width="10" height="10" fill="#161b22" rx="2" />
<rect x="616" y="70" width="10" height="10" fill="#161b22" rx="2" />
<rect x="616" y="84" width="10" height="10" fill="#161b22" rx="2" />
<rect x="630" y="0" width="10" height="10" fill="#161b22" rx="2" />
<rect x="630" y="14" width="10" height="10" fill="#161b22" rx="2" />
<rect x="630" y="28" width="10" height="10" fill="#161b22" rx="2" />
<rect x="630" y="42" width="10" height="10" fill="#161b22" rx="2" />
<rect x="630" y="56" width="10" height="10" fill="#161b22" rx="2" />
<rect x="630" y="70" width="10" height="10" fill="#161b22" rx="2" />
<rect x="630" y="84" width="10" height="10" fill="#161b22" rx="2" />
<rect x="644" y="0" width="10" height="10" fill="#161b22" rx="2" />
<rect x="644" y="14" width="10" height="10" fill="#161b22" rx="2" />
<rect x="644" y="28" width="10" height="10" fill="#161b22" rx="2" />
<rect x="644" y="42" width="10" height="10" fill="#161b22" rx="2" />
<rect x="644" y="56" width="10" height="10" fill="#161b22" rx="2" />
<rect x="644" y="70" width="10" height="10" fill="#161b22" rx="2" />
<rect x="644" y="84" width="10" height="10" fill="#161b22" rx="2" />
<rect x="658" y="0" width="10" height="10" fill="#161b22" rx="2" />
<rect x="658" y="14" width="10" height="10" fill="#161b22" rx="2" />
<rect x="658" y="28" width="10" height="10" fill="#161b22" rx="2" />
<rect x="658" y="42" width="10" height="10" fill="#161b22" rx="2" />
<rect x="658" y="56" width="10" height="10" fill="#161b22" rx="2" />
<rect x="658" y="70" width="10" height="10" fill="#161b22" rx="2" />
<rect x="658" y="84" width="10" height="10" fill="#161b22" rx="2" />
<rect x="672" y="0" width="10" height="10" fill="#161b22" rx="2" />
<rect x="672" y="14" width="10" height="10" fill="#161b22" rx="2" />
<rect x="672" y="28" width="10" height="10" fill="#161b22" rx="2" />
<rect x="672" y="42" width="10" height="10" fill="#161b22" rx="2" />
<rect x="672" y="56" width="10" height="10" fill="#161b22" rx="2" />
<rect x="672" y="70" width="10" height="10" fill="#161b22" rx="2" />
<rect x="672" y="84" width="10" height="10" fill="#161b22" rx="2" />
<rect x="686" y="0" width="10" height="10" fill="#161b22" rx="2" />
<rect x="686" y="14" width="10" height="10" fill="#161b22" rx="2" />
<rect x="686" y="28" width="10" height="10" fill="#161b22" rx="2" />
<rect x="686" y="42" width="10" height="10" fill="#161b22" rx="2" />
<rect x="686" y="56" width="10" height="10" fill="#161b22" rx="2" />
<rect x="686" y="70" width="10" height="10" fill="#161b22" rx="2" />
<rect x="686" y="84" width="10" height="10" fill="#161b22" rx="2" />
<rect x="700" y="0" width="10" height="10" fill="#161b22" rx="2" />
<rect x="700" y="14" width="10" height="10" fill="#161b22" rx="2" />
<rect x="700" y="28" width="10" height="10" fill="#161b22" rx="2" />
<rect x="700" y="42" width="10" height="10" fill="#161b22" rx="2" />
<rect x="700" y="56" width="10" height="10" fill="#161b22" rx="2" />
<rect x="700" y="70" width="10" height="10" fill="#161b22" rx="2" />
<rect x="700" y="84" width="10" height="10" fill="#161b22" rx="2" />
<rect x="714" y="0" width="10" height="10" fill="#161b22" rx="2" />
<rect x="714" y="14" width="10" height="10" fill="#161b22" rx="2" />
<rect x="714" y="28" width="10" height="10" fill="#161b22" rx="2" />
<rect x="714" y="42" width="10" height="10" fill="#161b22" rx="2" />
<rect x="714" y="56" width="10" height="10" fill="#161b22" rx="2" />
<rect x="714" y="70" width="10" height="10" fill="#161b22" rx="2" />
<rect x="714" y="84" width="10" height="10" fill="#161b22" rx="2" />
<rect x="728" y="0" width="10" height="10" fill="#161b22" rx="2" />
<rect x="728" y="14" width="10" height="10" fill="#161b22" rx="2" />
<rect x="728" y="28" width="10" height="10" fill="#161b22" rx="2" />
<rect x="728" y="42" width="10" height="10" fill="#161b22" rx="2" />
<rect x="728" y="56" width="10" height="10" fill="#161b22" rx="2" />
<rect x="728" y="70" width="10" height="10" fill="#161b22" rx="2" />
<rect x="728" y="84" width="10" height="10" fill="#161b22" rx="2" />

            <g filter="url(#neon-glow)">
                <rect width="10" height="10" fill="#ff00ff" rx="2">
                    <animateMotion 
                        path="M 812,28 L 798,28 L 784,28 L 770,28 L 756,28 L 742,28 L 728,28 L 714,28 L 700,28 L 686,28 L 672,28 L 658,28 L 644,28 L 630,28 L 616,28 L 602,28 L 588,28 L 574,28 L 560,28 L 546,28 L 532,28 L 518,28 L 504,28 L 490,28 L 476,28 L 462,28 L 448,28 L 434,28 L 420,28 L 406,28 L 392,28 L 378,28 L 364,28 L 350,28 L 336,28 L 322,28 L 308,28 L 294,28 L 280,28 L 266,28 L 252,28 L 238,28 L 224,28 L 210,28 L 196,28 L 182,28 L 168,28 L 154,28 L 140,28 L 126,28 L 112,28 L 98,28 L 84,28 L 70,28 L 56,28 L 42,28 L 28,28 L 14,28 L 0,28 L -14,28 L -28,28 L -42,28 L -56,28 " 
                        dur="8.4s" 
                        repeatCount="indefinite" 
                        calcMode="linear" />
                </rect>
            </g>
        
            <g filter="url(#neon-glow)">
                <rect width="10" height="10" fill="#ff00ff" rx="2">
                    <animateMotion 
                        path="M 812,14 L 798,14 L 784,14 L 770,14 L 756,14 L 742,14 L 728,14 L 714,14 L 700,14 L 686,14 L 672,14 L 658,14 L 644,14 L 630,14 L 616,14 L 602,14 L 588,14 L 574,14 L 560,14 L 546,14 L 532,14 L 518,14 L 504,14 L 490,14 L 476,14 L 462,14 L 448,14 L 434,14 L 420,14 L 406,14 L 392,14 L 378,14 L 364,14 L 350,14 L 336,14 L 322,14 L 308,14 L 294,14 L 280,14 L 266,14 L 252,14 L 238,14 L 224,14 L 210,14 L 196,14 L 182,14 L 168,14 L 154,14 L 140,14 L 126,14 L 112,14 L 98,14 L 84,14 L 70,14 L 56,14 L 42,14 L 28,14 L 14,14 L 0,14 L -14,14 L -28,14 L -42,14 L -56,14 " 
                        dur="10.0s" 
                        repeatCount="indefinite" 
                        calcMode="linear" />
                </rect>
            </g>
        
            <g filter="url(#neon-glow)">
                <rect width="10" height="10" fill="#ff00ff" rx="2">
                    <animateMotion 
                        path="M 812,28 L 798,28 L 784,28 L 770,28 L 756,28 L 742,28 L 728,28 L 714,28 L 700,28 L 686,28 L 672,28 L 658,28 L 644,28 L 630,28 L 616,28 L 602,28 L 588,28 L 574,28 L 560,28 L 546,28 L 532,28 L 518,28 L 504,28 L 490,28 L 476,28 L 462,28 L 448,28 L 434,28 L 420,28 L 406,28 L 392,28 L 378,28 L 364,28 L 350,28 L 336,28 L 322,28 L 308,28 L 294,28 L 280,28 L 266,28 L 252,28 L 238,28 L 224,28 L 210,28 L 196,28 L 182,28 L 168,28 L 154,28 L 140,28 L 126,28 L 112,28 L 98,28 L 84,28 L 70,28 L 56,28 L 42,28 L 28,28 L 14,28 L 0,28 L -14,28 L -28,28 L -42,28 L -56,28 " 
                        dur="7.8s" 
                        repeatCount="indefinite" 
                        calcMode="linear" />
                </rect>
            </g>
        
            <g filter="url(#neon-glow)">
                <rect width="10" height="10" fill="#ff00ff" rx="2">
                    <animateMotion 
                        path="M 812,14 L 798,14 L 784,14 L 770,14 L 756,14 L 742,14 L 728,14 L 714,14 L 700,14 L 686,14 L 672,14 L 658,14 L 644,14 L 630,14 L 616,14 L 602,14 L 588,14 L 574,14 L 560,14 L 546,14 L 532,14 L 518,14 L 504,14 L 490,14 L 476,14 L 462,14 L 448,14 L 434,14 L 420,14 L 406,14 L 392,14 L 378,14 L 364,14 L 350,14 L 336,14 L 322,14 L 308,14 L 294,14 L 280,14 L 266,14 L 252,14 L 238,14 L 224,14 L 210,14 L 196,14 L 182,14 L 168,14 L 154,14 L 140,14 L 126,14 L 112,14 L 98,14 L 84,14 L 70,14 L 56,14 L 42,14 L 28,14 L 14,14 L 0,14 L -14,14 L -28,14 L -42,14 L -56,14 " 
                        dur="7.4s" 
                        repeatCount="indefinite" 
                        calcMode="linear" />
                </rect>
            </g>
        
        <g id="player_car_glow" filter="url(#neon-glow)">
            <use href="#player_car_img" x="0" y="0">
                <animateMotion 
                    path="M 0,42 L 14,56 L 28,56 L 42,56 L 56,56 L 70,70 L 84,70 L 98,70 L 112,70 L 126,56 L 140,56 L 154,56 L 168,56 L 182,70 L 196,70 L 210,70 L 224,70 L 238,56 L 252,56 L 266,56 L 280,56 L 294,42 L 308,42 L 322,42 L 336,42 L 350,42 L 364,42 L 378,42 L 392,42 L 406,56 L 420,56 L 434,56 L 448,56 L 462,42 L 476,42 L 490,42 L 504,42 L 518,56 L 532,56 L 546,56 L 560,56 L 574,56 L 588,56 L 602,56 L 616,56 L 630,70 L 644,70 L 658,70 L 672,70 L 686,70 L 700,70 L 714,70 L 728,70 " 
                    dur="12s" 
                    repeatCount="indefinite" 
                    calcMode="linear" />
            </use>
        </g>
    </g>
    </svg>