<svg width="772" height="138" xmlns="http://www.w3.org/2000/svg">
    <defs>
        <filter id="neon-glow" x="-80%" y="-80%" width="260%" height="260%">
            <feGaussianBlur stdDeviation="3.5" result="blur" />
            <feMerge>
                <feMergeNode in="blur" />
                <feMergeNode in="blur" />
                <feMergeNode in="SourceGraphic" />
            </feMerge>
        </filter>
        
        <image id="player_car_img" href="https://raw.githubusercontent.com/YOUR_USERNAME/neon-rush-graph/main/assets/main_car.png" width="24" height="24" transform="translate(-12, -12)"/>
    </defs>
    <rect width="100%" height="100%" fill="#0d1117" rx="8"/>
    <g transform="translate(15, 20)">
    <rect x="0" y="0" width="10" height="10" fill="#161b22" rx="2" />
<rect x="0" y="14" width="10" height="10" fill="#161b22" rx="2" />
<rect x="0" y="28" width="10" height="10" fill="#161b22" rx="2" />
<rect x="0" y="42" width="10" height="10" fill="#161b22" rx="2" />
<rect x="0" y="56" width="10" height="10" fill="#161b22" rx="2" />
<rect x="0" y="70" width="10" height="10" fill="#161b22" rx="2" />
<rect x="0" y="84" width="10" height="10" fill="#161b22" rx="2" />
<rect x="14" y="0" width="10" height="10" fill="#161b22" rx="2" />
<rect x="14" y="14" width="10" height="10" fill="#161b22" rx="2" />
<rect x="14" y="28" width="10" height="10" fill="#161b22" rx="2" />
<rect x="14" y="42" width="10" height="10" fill="#161b22" rx="2" />
<rect x="14" y="56" width="10" height="10" fill="#161b22" rx="2" />
<rect x="14" y="70" width="10" height="10" fill="#161b22" rx="2" />
<rect x="14" y="84" width="10" height="10" fill="#161b22" rx="2" />
<rect x="28" y="0" width="10" height="10" fill="#161b22" rx="2" />
<rect x="28" y="14" width="10" height="10" fill="#161b22" rx="2" />
<rect x="28" y="28" width="10" height="10" fill="#161b22" rx="2" />
<rect x="28" y="42" width="10" height="10" fill="#161b22" rx="2" />
<rect x="28" y="56" width="10" height="10" fill="#161b22" rx="2" />
<rect x="28" y="70" width="10" height="10" fill="#161b22" rx="2" />
<rect x="28" y="84" width="10" height="10" fill="#161b22" rx="2" />
<rect x="42" y="0" width="10" height="10" fill="#161b22" rx="2" />
<rect x="42" y="14" width="10" height="10" fill="#161b22" rx="2" />
<rect x="42" y="28" width="10" height="10" fill="#161b22" rx="2" />
<rect x="42" y="42" width="10" height="10" fill="#161b22" rx="2" />
<rect x="42" y="56" width="10" height="10" fill="#161b22" rx="2" />
<rect x="42" y="70" width="10" height="10" fill="#161b22" rx="2" />
<rect x="42" y="84" width="10" height="10" fill="#161b22" rx="2" />
<rect x="56" y="0" width="10" height="10" fill="#161b22" rx="2" />
<rect x="56" y="14" width="10" height="10" fill="#161b22" rx="2" />
<rect x="56" y="28" width="10" height="10" fill="#161b22" rx="2" />
<rect x="56" y="42" width="10" height="10" fill="#161b22" rx="2" />
<rect x="56" y="56" width="10" height="10" fill="#161b22" rx="2" />
<rect x="56" y="70" width="10" height="10" fill="#161b22" rx="2" />
<rect x="56" y="84" width="10" height="10" fill="#161b22" rx="2" />
<rect x="70" y="0" width="10" height="10" fill="#161b22" rx="2" />
<rect x="70" y="14" width="10" height="10" fill="#161b22" rx="2" />
<rect x="70" y="28" width="10" height="10" fill="#161b22" rx="2" />
<rect x="70" y="42" width="10" height="10" fill="#161b22" rx="2" />
<rect x="70" y="56" width="10" height="10" fill="#161b22" rx="2" />
<rect x="70" y="70" width="10" height="10" fill="#161b22" rx="2" />
<rect x="70" y="84" width="10" height="10" fill="#161b22" rx="2" />
<rect x="84" y="0" width="10" height="10" fill="#161b22" rx="2" />
<rect x="84" y="14" width="10" height="10" fill="#161b22" rx="2" />
<rect x="84" y="28" width="10" height="10" fill="#161b22" rx="2" />
<rect x="84" y="42" width="10" height="10" fill="#161b22" rx="2" />
<rect x="84" y="56" width="10" height="10" fill="#161b22" rx="2" />
<rect x="84" y="70" width="10" height="10" fill="#161b22" rx="2" />
<rect x="84" y="84" width="10" height="10" fill="#161b22" rx="2" />
<rect x="98" y="0" width="10" height="10" fill="#161b22" rx="2" />
<rect x="98" y="14" width="10" height="10" fill="#161b22" rx="2" />
<rect x="98" y="28" width="10" height="10" fill="#161b22" rx="2" />
<rect x="98" y="42" width="10" height="10" fill="#161b22" rx="2" />
<rect x="98" y="56" width="10" height="10" fill="#161b22" rx="2" />
<rect x="98" y="70" width="10" height="10" fill="#161b22" rx="2" />
<rect x="98" y="84" width="10" height="10" fill="#161b22" rx="2" />
<rect x="112" y="0" width="10" height="10" fill="#161b22" rx="2" />
<rect x="112" y="14" width="10" height="10" fill="#161b22" rx="2" />
<rect x="112" y="28" width="10" height="10" fill="#161b22" rx="2" />
<rect x="112" y="42" width="10" height="10" fill="#161b22" rx="2" />
<rect x="112" y="56" width="10" height="10" fill="#161b22" rx="2" />
<rect x="112" y="70" width="10" height="10" fill="#161b22" rx="2" />
<rect x="112" y="84" width="10" height="10" fill="#161b22" rx="2" />
<rect x="126" y="0" width="10" height="10" fill="#161b22" rx="2" />
<rect x="126" y="14" width="10" height="10" fill="#161b22" rx="2" />
<rect x="126" y="28" width="10" height="10" fill="#161b22" rx="2" />
<rect x="126" y="42" width="10" height="10" fill="#161b22" rx="2" />
<rect x="126" y="56" width="10" height="10" fill="#161b22" rx="2" />
<rect x="126" y="70" width="10" height="10" fill="#161b22" rx="2" />
<rect x="126" y="84" width="10" height="10" fill="#161b22" rx="2" />
<rect x="140" y="0" width="10" height="10" fill="#161b22" rx="2" />
<rect x="140" y="14" width="10" height="10" fill="#161b22" rx="2" />
<rect x="140" y="28" width="10" height="10" fill="#161b22" rx="2" />
<rect x="140" y="42" width="10" height="10" fill="#161b22" rx="2" />
<rect x="140" y="56" width="10" height="10" fill="#161b22" rx="2" />
<rect x="140" y="70" width="10" height="10" fill="#161b22" rx="2" />
<rect x="140" y="84" width="10" height="10" fill="#161b22" rx="2" />
<rect x="154" y="0" width="10" height="10" fill="#161b22" rx="2" />
<rect x="154" y="14" width="10" height="10" fill="#161b22" rx="2" />
<rect x="154" y="28" width="10" height="10" fill="#161b22" rx="2" />
<rect x="154" y="42" width="10" height="10" fill="#161b22" rx="2" />
<rect x="154" y="56" width="10" height="10" fill="#161b22" rx="2" />
<rect x="154" y="70" width="10" height="10" fill="#161b22" rx="2" />
<rect x="154" y="84" width="10" height="10" fill="#161b22" rx="2" />
<rect x="168" y="0" width="10" height="10" fill="#161b22" rx="2" />
<rect x="168" y="14" width="10" height="10" fill="#161b22" rx="2" />
<rect x="168" y="28" width="10" height="10" fill="#161b22" rx="2" />
<rect x="168" y="42" width="10" height="10" fill="#161b22" rx="2" />
<rect x="168" y="56" width="10" height="10" fill="#161b22" rx="2" />
<rect x="168" y="70" width="10" height="10" fill="#161b22" rx="2" />
<rect x="168" y="84" width="10" height="10" fill="#161b22" rx="2" />
<rect x="182" y="0" width="10" height="10" fill="#161b22" rx="2" />
<rect x="182" y="14" width="10" height="10" fill="#161b22" rx="2" />
<rect x="182" y="28" width="10" height="10" fill="#161b22" rx="2" />
<rect x="182" y="42" width="10" height="10" fill="#161b22" rx="2" />
<rect x="182" y="56" width="10" height="10" fill="#161b22" rx="2" />
<rect x="182" y="70" width="10" height="10" fill="#161b22" rx="2" />
<rect x="182" y="84" width="10" height="10" fill="#161b22" rx="2" />
<rect x="196" y="0" width="10" height="10" fill="#161b22" rx="2" />
<rect x="196" y="14" width="10" height="10" fill="#161b22" rx="2" />
<rect x="196" y="28" width="10" height="10" fill="#161b22" rx="2" />
<rect x="196" y="42" width="10" height="10" fill="#161b22" rx="2" />
<rect x="196" y="56" width="10" height="10" fill="#161b22" rx="2" />
<rect x="196" y="70" width="10" height="10" fill="#161b22" rx="2" />
<rect x="196" y="84" width="10" height="10" fill="#161b22" rx="2" />
<rect x="210" y="0" width="10" height="10" fill="#161b22" rx="2" />
<rect x="210" y="14" width="10" height="10" fill="#161b22" rx="2" />
<rect x="210" y="28" width="10" height="10" fill="#161b22" rx="2" />
<rect x="210" y="42" width="10" height="10" fill="#161b22" rx="2" />
<rect x="210" y="56" width="10" height="10" fill="#161b22" rx="2" />
<rect x="210" y="70" width="10" height="10" fill="#161b22" rx="2" />
<rect x="210" y="84" width="10" height="10" fill="#161b22" rx="2" />
<rect x="224" y="0" width="10" height="10" fill="#161b22" rx="2" />
<rect x="224" y="14" width="10" height="10" fill="#161b22" rx="2" />
<rect x="224" y="28" width="10" height="10" fill="#161b22" rx="2" />
<rect x="224" y="42" width="10" height="10" fill="#161b22" rx="2" />
<rect x="224" y="56" width="10" height="10" fill="#161b22" rx="2" />
<rect x="224" y="70" width="10" height="10" fill="#161b22" rx="2" />
<rect x="224" y="84" width="10" height="10" fill="#161b22" rx="2" />
<rect x="238" y="0" width="10" height="10" fill="#161b22" rx="2" />
<rect x="238" y="14" width="10" height="10" fill="#161b22" rx="2" />
<rect x="238" y="28" width="10" height="10" fill="#161b22" rx="2" />
<rect x="238" y="42" width="10" height="10" fill="#161b22" rx="2" />
<rect x="238" y="56" width="10" height="10" fill="#161b22" rx="2" />
<rect x="238" y="70" width="10" height="10" fill="#161b22" rx="2" />
<rect x="238" y="84" width="10" height="10" fill="#161b22" rx="2" />
<rect x="252" y="0" width="10" height="10" fill="#161b22" rx="2" />
<rect x="252" y="14" width="10" height="10" fill="#161b22" rx="2" />
<rect x="252" y="28" width="10" height="10" fill="#161b22" rx="2" />
<rect x="252" y="42" width="10" height="10" fill="#161b22" rx="2" />
<rect x="252" y="56" width="10" height="10" fill="#161b22" rx="2" />
<rect x="252" y="70" width="10" height="10" fill="#161b22" rx="2" />
<rect x="252" y="84" width="10" height="10" fill="#161b22" rx="2" />
<rect x="266" y="0" width="10" height="10" fill="#161b22" rx="2" />
<rect x="266" y="14" width="10" height="10" fill="#161b22" rx="2" />
<rect x="266" y="28" width="10" height="10" fill="#161b22" rx="2" />
<rect x="266" y="42" width="10" height="10" fill="#161b22" rx="2" />
<rect x="266" y="56" width="10" height="10" fill="#161b22" rx="2" />
<rect x="266" y="70" width="10" height="10" fill="#161b22" rx="2" />
<rect x="266" y="84" width="10" height="10" fill="#161b22" rx="2" />
<rect x="280" y="0" width="10" height="10" fill="#161b22" rx="2" />
<rect x="280" y="14" width="10" height="10" fill="#161b22" rx="2" />
<rect x="280" y="28" width="10" height="10" fill="#161b22" rx="2" />
<rect x="280" y="42" width="10" height="10" fill="#161b22" rx="2" />
<rect x="280" y="56" width="10" height="10" fill="#161b22" rx="2" />
<rect x="280" y="70" width="10" height="10" fill="#161b22" rx="2" />
<rect x="280" y="84" width="10" height="10" fill="#161b22" rx="2" />
<rect x="294" y="0" width="10" height="10" fill="#161b22" rx="2" />
<rect x="294" y="14" width="10" height="10" fill="#161b22" rx="2" />
<rect x="294" y="28" width="10" height="10" fill="#161b22" rx="2" />
<rect x="294" y="42" width="10" height="10" fill="#161b22" rx="2" />
<rect x="294" y="56" width="10" height="10" fill="#161b22" rx="2" />
<rect x="294" y="70" width="10" height="10" fill="#161b22" rx="2" />
<rect x="294" y="84" width="10" height="10" fill="#161b22" rx="2" />
<rect x="308" y="0" width="10" height="10" fill="#161b22" rx="2" />
<rect x="308" y="14" width="10" height="10" fill="#161b22" rx="2" />
<rect x="308" y="28" width="10" height="10" fill="#161b22" rx="2" />
<rect x="308" y="42" width="10" height="10" fill="#161b22" rx="2" />
<rect x="308" y="56" width="10" height="10" fill="#161b22" rx="2" />
<rect x="308" y="70" width="10" height="10" fill="#161b22" rx="2" />
<rect x="308" y="84" width="10" height="10" fill="#161b22" rx="2" />
<rect x="322" y="0" width="10" height="10" fill="#161b22" rx="2" />
<rect x="322" y="14" width="10" height="10" fill="#161b22" rx="2" />
<rect x="322" y="28" width="10" height="10" fill="#161b22" rx="2" />
<rect x="322" y="42" width="10" height="10" fill="#161b22" rx="2" />
<rect x="322" y="56" width="10" height="10" fill="#161b22" rx="2" />
<rect x="322" y="70" width="10" height="10" fill="#161b22" rx="2" />
<rect x="322" y="84" width="10" height="10" fill="#161b22" rx="2" />
<rect x="336" y="0" width="10" height="10" fill="#161b22" rx="2" />
<rect x="336" y="14" width="10" height="10" fill="#161b22" rx="2" />
<rect x="336" y="28" width="10" height="10" fill="#161b22" rx="2" />
<rect x="336" y="42" width="10" height="10" fill="#161b22" rx="2" />
<rect x="336" y="56" width="10" height="10" fill="#161b22" rx="2" />
<rect x="336" y="70" width="10" height="10" fill="#161b22" rx="2" />
<rect x="336" y="84" width="10" height="10" fill="#161b22" rx="2" />
<rect x="350" y="0" width="10" height="10" fill="#161b22" rx="2" />
<rect x="350" y="14" width="10" height="10" fill="#161b22" rx="2" />
<rect x="350" y="28" width="10" height="10" fill="#161b22" rx="2" />
<rect x="350" y="42" width="10" height="10" fill="#161b22" rx="2" />
<rect x="350" y="56" width="10" height="10" fill="#161b22" rx="2" />
<rect x="350" y="70" width="10" height="10" fill="#161b22" rx="2" />
<rect x="350" y="84" width="10" height="10" fill="#161b22" rx="2" />
<rect x="364" y="0" width="10" height="10" fill="#161b22" rx="2" />
<rect x="364" y="14" width="10" height="10" fill="#161b22" rx="2" />
<rect x="364" y="28" width="10" height="10" fill="#161b22" rx="2" />
<rect x="364" y="42" width="10" height="10" fill="#161b22" rx="2" />
<rect x="364" y="56" width="10" height="10" fill="#161b22" rx="2" />
<rect x="364" y="70" width="10" height="10" fill="#161b22" rx="2" />
<rect x="364" y="84" width="10" height="10" fill="#161b22" rx="2" />
<rect x="378" y="0" width="10" height="10" fill="#161b22" rx="2" />
<rect x="378" y="14" width="10" height="10" fill="#161b22" rx="2" />
<rect x="378" y="28" width="10" height="10" fill="#161b22" rx="2" />
<rect x="378" y="42" width="10" height="10" fill="#161b22" rx="2" />
<rect x="378" y="56" width="10" height="10" fill="#161b22" rx="2" />
<rect x="378" y="70" width="10" height="10" fill="#161b22" rx="2" />
<rect x="378" y="84" width="10" height="10" fill="#161b22" rx="2" />
<rect x="392" y="0" width="10" height="10" fill="#161b22" rx="2" />
<rect x="392" y="14" width="10" height="10" fill="#161b22" rx="2" />
<rect x="392" y="28" width="10" height="10" fill="#161b22" rx="2" />
<rect x="392" y="42" width="10" height="10" fill="#161b22" rx="2" />
<rect x="392" y="56" width="10" height="10" fill="#161b22" rx="2" />
<rect x="392" y="70" width="10" height="10" fill="#161b22" rx="2" />
<rect x="392" y="84" width="10" height="10" fill="#161b22" rx="2" />
<rect x="406" y="0" width="10" height="10" fill="#161b22" rx="2" />
<rect x="406" y="14" width="10" height="10" fill="#161b22" rx="2" />
<rect x="406" y="28" width="10" height="10" fill="#161b22" rx="2" />
<rect x="406" y="42" width="10" height="10" fill="#161b22" rx="2" />
<rect x="406" y="56" width="10" height="10" fill="#161b22" rx="2" />
<rect x="406" y="70" width="10" height="10" fill="#161b22" rx="2" />
<rect x="406" y="84" width="10" height="10" fill="#161b22" rx="2" />
<rect x="420" y="0" width="10" height="10" fill="#161b22" rx="2" />
<rect x="420" y="14" width="10" height="10" fill="#161b22" rx="2" />
<rect x="420" y="28" width="10" height="10" fill="#161b22" rx="2" />
<rect x="420" y="42" width="10" height="10" fill="#161b22" rx="2" />
<rect x="420" y="56" width="10" height="10" fill="#161b22" rx="2" />
<rect x="420" y="70" width="10" height="10" fill="#161b22" rx="2" />
<rect x="420" y="84" width="10" height="10" fill="#161b22" rx="2" />
<rect x="434" y="0" width="10" height="10" fill="#161b22" rx="2" />
<rect x="434" y="14" width="10" height="10" fill="#161b22" rx="2" />
<rect x="434" y="28" width="10" height="10" fill="#161b22" rx="2" />
<rect x="434" y="42" width="10" height="10" fill="#161b22" rx="2" />
<rect x="434" y="56" width="10" height="10" fill="#161b22" rx="2" />
<rect x="434" y="70" width="10" height="10" fill="#161b22" rx="2" />
<rect x="434" y="84" width="10" height="10" fill="#161b22" rx="2" />
<rect x="448" y="0" width="10" height="10" fill="#161b22" rx="2" />
<rect x="448" y="14" width="10" height="10" fill="#161b22" rx="2" />
<rect x="448" y="28" width="10" height="10" fill="#161b22" rx="2" />
<rect x="448" y="42" width="10" height="10" fill="#161b22" rx="2" />
<rect x="448" y="56" width="10" height="10" fill="#161b22" rx="2" />
<rect x="448" y="70" width="10" height="10" fill="#161b22" rx="2" />
<rect x="448" y="84" width="10" height="10" fill="#161b22" rx="2" />
<rect x="462" y="0" width="10" height="10" fill="#161b22" rx="2" />
<rect x="462" y="14" width="10" height="10" fill="#161b22" rx="2" />
<rect x="462" y="28" width="10" height="10" fill="#161b22" rx="2" />
<rect x="462" y="42" width="10" height="10" fill="#161b22" rx="2" />
<rect x="462" y="56" width="10" height="10" fill="#161b22" rx="2" />
<rect x="462" y="70" width="10" height="10" fill="#161b22" rx="2" />
<rect x="462" y="84" width="10" height="10" fill="#161b22" rx="2" />
<rect x="476" y="0" width="10" height="10" fill="#161b22" rx="2" />
<rect x="476" y="14" width="10" height="10" fill="#161b22" rx="2" />
<rect x="476" y="28" width="10" height="10" fill="#161b22" rx="2" />
<rect x="476" y="42" width="10" height="10" fill="#161b22" rx="2" />
<rect x="476" y="56" width="10" height="10" fill="#161b22" rx="2" />
<rect x="476" y="70" width="10" height="10" fill="#161b22" rx="2" />
<rect x="476" y="84" width="10" height="10" fill="#161b22" rx="2" />
<rect x="490" y="0" width="10" height="10" fill="#161b22" rx="2" />
<rect x="490" y="14" width="10" height="10" fill="#161b22" rx="2" />
<rect x="490" y="28" width="10" height="10" fill="#161b22" rx="2" />
<rect x="490" y="42" width="10" height="10" fill="#161b22" rx="2" />
<rect x="490" y="56" width="10" height="10" fill="#161b22" rx="2" />
<rect x="490" y="70" width="10" height="10" fill="#161b22" rx="2" />
<rect x="490" y="84" width="10" height="10" fill="#161b22" rx="2" />
<rect x="504" y="0" width="10" height="10" fill="#161b22" rx="2" />
<rect x="504" y="14" width="10" height="10" fill="#161b22" rx="2" />
<rect x="504" y="28" width="10" height="10" fill="#161b22" rx="2" />
<rect x="504" y="42" width="10" height="10" fill="#161b22" rx="2" />
<rect x="504" y="56" width="10" height="10" fill="#161b22" rx="2" />
<rect x="504" y="70" width="10" height="10" fill="#161b22" rx="2" />
<rect x="504" y="84" width="10" height="10" fill="#161b22" rx="2" />
<rect x="518" y="0" width="10" height="10" fill="#161b22" rx="2" />
<rect x="518" y="14" width="10" height="10" fill="#161b22" rx="2" />
<rect x="518" y="28" width="10" height="10" fill="#161b22" rx="2" />
<rect x="518" y="42" width="10" height="10" fill="#161b22" rx="2" />
<rect x="518" y="56" width="10" height="10" fill="#161b22" rx="2" />
<rect x="518" y="70" width="10" height="10" fill="#161b22" rx="2" />
<rect x="518" y="84" width="10" height="10" fill="#161b22" rx="2" />
<rect x="532" y="0" width="10" height="10" fill="#161b22" rx="2" />
<rect x="532" y="14" width="10" height="10" fill="#161b22" rx="2" />
<rect x="532" y="28" width="10" height="10" fill="#161b22" rx="2" />
<rect x="532" y="42" width="10" height="10" fill="#161b22" rx="2" />
<rect x="532" y="56" width="10" height="10" fill="#161b22" rx="2" />
<rect x="532" y="70" width="10" height="10" fill="#161b22" rx="2" />
<rect x="532" y="84" width="10" height="10" fill="#161b22" rx="2" />
<rect x="546" y="0" width="10" height="10" fill="#161b22" rx="2" />
<rect x="546" y="14" width="10" height="10" fill="#161b22" rx="2" />
<rect x="546" y="28" width="10" height="10" fill="#161b22" rx="2" />
<rect x="546" y="42" width="10" height="10" fill="#161b22" rx="2" />
<rect x="546" y="56" width="10" height="10" fill="#161b22" rx="2" />
<rect x="546" y="70" width="10" height="10" fill="#161b22" rx="2" />
<rect x="546" y="84" width="10" height="10" fill="#161b22" rx="2" />
<rect x="560" y="0" width="10" height="10" fill="#161b22" rx="2" />
<rect x="560" y="14" width="10" height="10" fill="#161b22" rx="2" />
<rect x="560" y="28" width="10" height="10" fill="#161b22" rx="2" />
<rect x="560" y="42" width="10" height="10" fill="#161b22" rx="2" />
<rect x="560" y="56" width="10" height="10" fill="#161b22" rx="2" />
<rect x="560" y="70" width="10" height="10" fill="#161b22" rx="2" />
<rect x="560" y="84" width="10" height="10" fill="#161b22" rx="2" />
<rect x="574" y="0" width="10" height="10" fill="#161b22" rx="2" />
<rect x="574" y="14" width="10" height="10" fill="#161b22" rx="2" />
<rect x="574" y="28" width="10" height="10" fill="#161b22" rx="2" />
<rect x="574" y="42" width="10" height="10" fill="#161b22" rx="2" />
<rect x="574" y="56" width="10" height="10" fill="#161b22" rx="2" />
<rect x="574" y="70" width="10" height="10" fill="#161b22" rx="2" />
<rect x="574" y="84" width="10" height="10" fill="#161b22" rx="2" />
<rect x="588" y="0" width="10" height="10" fill="#161b22" rx="2" />
<rect x="588" y="14" width="10" height="10" fill="#161b22" rx="2" />
<rect x="588" y="28" width="10" height="10" fill="#161b22" rx="2" />
<rect x="588" y="42" width="10" height="10" fill="#161b22" rx="2" />
<rect x="588" y="56" width="10" height="10" fill="#161b22" rx="2" />
<rect x="588" y="70" width="10" height="10" fill="#161b22" rx="2" />
<rect x="588" y="84" width="10" height="10" fill="#161b22" rx="2" />
<rect x="602" y="0" width="10" height="10" fill="#161b22" rx="2" />
<rect x="602" y="14" width="10" height="10" fill="#161b22" rx="2" />
<rect x="602" y="28" width="10" height="10" fill="#161b22" rx="2" />
<rect x="602" y="42" width="10" height="10" fill="#161b22" rx="2" />
<rect x="602" y="56" width="10" height="10" fill="#161b22" rx="2" />
<rect x="602" y="70" width="10" height="10" fill="#161b22" rx="2" />
<rect x="602" y="84" width="10" height="10" fill="#161b22" rx="2" />
<rect x="616" y="0" width="10" height="10" fill="#161b22" rx="2" />
<rect x="616" y="14" width="10" height="10" fill="#161b22" rx="2" />
<rect x="616" y="28" width="10" height="10" fill="#161b22" rx="2" />
<rect x="616" y="42" width="10" height="10" fill="#161b22" rx="2" />
<rect x="616" y="56" width="10" height="10" fill="#161b22" rx="2" />
<rect x="616" y="70" width="10" height="10" fill="#161b22" rx="2" />
<rect x="616" y="84" width="10" height="10" fill="#161b22" rx="2" />
<rect x="630" y="0" width="10" height="10" fill="#161b22" rx="2" />
<rect x="630" y="14" width="10" height="10" fill="#161b22" rx="2" />
<rect x="630" y="28" width="10" height="10" fill="#161b22" rx="2" />
<rect x="630" y="42" width="10" height="10" fill="#161b22" rx="2" />
<rect x="630" y="56" width="10" height="10" fill="#161b22" rx="2" />
<rect x="630" y="70" width="10" height="10" fill="#161b22" rx="2" />
<rect x="630" y="84" width="10" height="10" fill="#161b22" rx="2" />
<rect x="644" y="0" width="10" height="10" fill="#161b22" rx="2" />
<rect x="644" y="14" width="10" height="10" fill="#161b22" rx="2" />
<rect x="644" y="28" width="10" height="10" fill="#161b22" rx="2" />
<rect x="644" y="42" width="10" height="10" fill="#161b22" rx="2" />
<rect x="644" y="56" width="10" height="10" fill="#161b22" rx="2" />
<rect x="644" y="70" width="10" height="10" fill="#161b22" rx="2" />
<rect x="644" y="84" width="10" height="10" fill="#161b22" rx="2" />
<rect x="658" y="0" width="10" height="10" fill="#161b22" rx="2" />
<rect x="658" y="14" width="10" height="10" fill="#161b22" rx="2" />
<rect x="658" y="28" width="10" height="10" fill="#161b22" rx="2" />
<rect x="658" y="42" width="10" height="10" fill="#161b22" rx="2" />
<rect x="658" y="56" width="10" height="10" fill="#161b22" rx="2" />
<rect x="658" y="70" width="10" height="10" fill="#161b22" rx="2" />
<rect x="658" y="84" width="10" height="10" fill="#161b22" rx="2" />
<rect x="672" y="0" width="10" height="10" fill="#161b22" rx="2" />
<rect x="672" y="14" width="10" height="10" fill="#161b22" rx="2" />
<rect x="672" y="28" width="10" height="10" fill="#161b22" rx="2" />
<rect x="672" y="42" width="10" height="10" fill="#161b22" rx="2" />
<rect x="672" y="56" width="10" height="10" fill="#161b22" rx="2" />
<rect x="672" y="70" width="10" height="10" fill="#161b22" rx="2" />
<rect x="672" y="84" width="10" height="10" fill="#161b22" rx="2" />
<rect x="686" y="0" width="10" height="10" fill="#161b22" rx="2" />
<rect x="686" y="14" width="10" height="10" fill="#161b22" rx="2" />
<rect x="686" y="28" width="10" height="10" fill="#161b22" rx="2" />
<rect x="686" y="42" width="10" height="10" fill="#161b22" rx="2" />
<rect x="686" y="56" width="10" height="10" fill="#161b22" rx="2" />
<rect x="686" y="70" width="10" height="10" fill="#161b22" rx="2" />
<rect x="686" y="84" width="10" height="10" fill="#161b22" rx="2" />
<rect x="700" y="0" width="10" height="10" fill="#161b22" rx="2" />
<rect x="700" y="14" width="10" height="10" fill="#161b22" rx="2" />
<rect x="700" y="28" width="10" height="10" fill="#161b22" rx="2" />
<rect x="700" y="42" width="10" height="10" fill="#161b22" rx="2" />
<rect x="700" y="56" width="10" height="10" fill="#161b22" rx="2" />
<rect x="700" y="70" width="10" height="10" fill="#161b22" rx="2" />
<rect x="700" y="84" width="10" height="10" fill="#161b22" rx="2" />
<rect x="714" y="0" width="10" height="10" fill="#161b22" rx="2" />
<rect x="714" y="14" width="10" height="10" fill="#161b22" rx="2" />
<rect x="714" y="28" width="10" height="10" fill="#161b22" rx="2" />
<rect x="714" y="42" width="10" height="10" fill="#161b22" rx="2" />
<rect x="714" y="56" width="10" height="10" fill="#161b22" rx="2" />
<rect x="714" y="70" width="10" height="10" fill="#161b22" rx="2" />
<rect x="714" y="84" width="10" height="10" fill="#161b22" rx="2" />
<rect x="728" y="0" width="10" height="10" fill="#161b22" rx="2" />
<rect x="728" y="14" width="10" height="10" fill="#161b22" rx="2" />
<rect x="728" y="28" width="10" height="10" fill="#161b22" rx="2" />
<rect x="728" y="42" width="10" height="10" fill="#161b22" rx="2" />
<rect x="728" y="56" width="10" height="10" fill="#161b22" rx="2" />
<rect x="728" y="70" width="10" height="10" fill="#161b22" rx="2" />
<rect x="728" y="84" width="10" height="10" fill="#161b22" rx="2" />

            <g filter="url(#neon-glow)">
                <rect width="10" height="10" fill="#ff00ff" rx="2">
                    <animateMotion 
                        path="M 812,56 L 798,56 L 784,56 L 770,56 L 756,56 L 742,56 L 728,56 L 714,56 L 700,56 L 686,56 L 672,56 L 658,56 L 644,56 L 630,56 L 616,56 L 602,56 L 588,56 L 574,56 L 560,56 L 546,56 L 532,56 L 518,56 L 504,56 L 490,56 L 476,56 L 462,56 L 448,56 L 434,56 L 420,56 L 406,56 L 392,56 L 378,56 L 364,56 L 350,56 L 336,56 L 322,56 L 308,56 L 294,56 L 280,56 L 266,56 L 252,56 L 238,56 L 224,56 L 210,56 L 196,56 L 182,56 L 168,56 L 154,56 L 140,56 L 126,56 L 112,56 L 98,56 L 84,56 L 70,56 L 56,56 L 42,56 L 28,56 L 14,56 L 0,56 L -14,56 L -28,56 L -42,56 L -56,56 " 
                        dur="8.1s" 
                        repeatCount="indefinite" 
                        calcMode="linear" />
                </rect>
            </g>
        
            <g filter="url(#neon-glow)">
                <rect width="10" height="10" fill="#ff00ff" rx="2">
                    <animateMotion 
                        path="M 812,56 L 798,56 L 784,56 L 770,56 L 756,56 L 742,56 L 728,56 L 714,56 L 700,56 L 686,56 L 672,56 L 658,56 L 644,56 L 630,56 L 616,56 L 602,56 L 588,56 L 574,56 L 560,56 L 546,56 L 532,56 L 518,56 L 504,56 L 490,56 L 476,56 L 462,56 L 448,56 L 434,56 L 420,56 L 406,56 L 392,56 L 378,56 L 364,56 L 350,56 L 336,56 L 322,56 L 308,56 L 294,56 L 280,56 L 266,56 L 252,56 L 238,56 L 224,56 L 210,56 L 196,56 L 182,56 L 168,56 L 154,56 L 140,56 L 126,56 L 112,56 L 98,56 L 84,56 L 70,56 L 56,56 L 42,56 L 28,56 L 14,56 L 0,56 L -14,56 L -28,56 L -42,56 L -56,56 " 
                        dur="7.9s" 
                        repeatCount="indefinite" 
                        calcMode="linear" />
                </rect>
            </g>
        
            <g filter="url(#neon-glow)">
                <rect width="10" height="10" fill="#ff00ff" rx="2">
                    <animateMotion 
                        path="M 812,56 L 798,56 L 784,56 L 770,56 L 756,56 L 742,56 L 728,56 L 714,56 L 700,56 L 686,56 L 672,56 L 658,56 L 644,56 L 630,56 L 616,56 L 602,56 L 588,56 L 574,56 L 560,56 L 546,56 L 532,56 L 518,56 L 504,56 L 490,56 L 476,56 L 462,56 L 448,56 L 434,56 L 420,56 L 406,56 L 392,56 L 378,56 L 364,56 L 350,56 L 336,56 L 322,56 L 308,56 L 294,56 L 280,56 L 266,56 L 252,56 L 238,56 L 224,56 L 210,56 L 196,56 L 182,56 L 168,56 L 154,56 L 140,56 L 126,56 L 112,56 L 98,56 L 84,56 L 70,56 L 56,56 L 42,56 L 28,56 L 14,56 L 0,56 L -14,56 L -28,56 L -42,56 L -56,56 " 
                        dur="9.1s" 
                        repeatCount="indefinite" 
                        calcMode="linear" />
                </rect>
            </g>
        
            <g filter="url(#neon-glow)">
                <rect width="10" height="10" fill="#ff00ff" rx="2">
                    <animateMotion 
                        path="M 812,70 L 798,70 L 784,70 L 770,70 L 756,70 L 742,70 L 728,70 L 714,70 L 700,70 L 686,70 L 672,70 L 658,70 L 644,70 L 630,70 L 616,70 L 602,70 L 588,70 L 574,70 L 560,70 L 546,70 L 532,70 L 518,70 L 504,70 L 490,70 L 476,70 L 462,70 L 448,70 L 434,70 L 420,70 L 406,70 L 392,70 L 378,70 L 364,70 L 350,70 L 336,70 L 322,70 L 308,70 L 294,70 L 280,70 L 266,70 L 252,70 L 238,70 L 224,70 L 210,70 L 196,70 L 182,70 L 168,70 L 154,70 L 140,70 L 126,70 L 112,70 L 98,70 L 84,70 L 70,70 L 56,70 L 42,70 L 28,70 L 14,70 L 0,70 L -14,70 L -28,70 L -42,70 L -56,70 " 
                        dur="6.6s" 
                        repeatCount="indefinite" 
                        calcMode="linear" />
                </rect>
            </g>
        
        <g id="player_car_glow" filter="url(#neon-glow)">
            <use href="#player_car_img" x="0" y="0">
                <animateMotion 
                    path="M 0,42 L 14,42 L 28,42 L 42,42 L 56,42 L 70,28 L 84,28 L 98,28 L 112,28 L 126,28 L 140,28 L 154,28 L 168,28 L 182,14 L 196,14 L 210,14 L 224,14 L 238,14 L 252,14 L 266,14 L 280,14 L 294,14 L 308,14 L 322,14 L 336,14 L 350,14 L 364,14 L 378,14 L 392,14 L 406,28 L 420,28 L 434,28 L 448,28 L 462,28 L 476,28 L 490,28 L 504,28 L 518,42 L 532,42 L 546,42 L 560,42 L 574,42 L 588,42 L 602,42 L 616,42 L 630,28 L 644,28 L 658,28 L 672,28 L 686,14 L 700,14 L 714,14 L 728,14 " 
                    dur="12s" 
                    repeatCount="indefinite" 
                    calcMode="linear" />
            </use>
        </g>
    </g>
    </svg>